:version 1.10
:name ASF
:units
  mass 1
  length 1
  angle deg
:documentation
  ASF file generated by Kaydara
:root
  axis xyz
  order  tx ty tz rx ry rz
  position 0 0 0
  orientation 0 0 0
:bonedata
  begin
    id 1
    name lfemurDummy
    direction 0.61522 -0.761478 0.204097
    length 5.68318
    axis 0 -0 0 xyz
  end
  begin
    id 2
    name lfemur
    direction 0.34202 -0.939693 -5.84747e-008
    length 16.9147
    axis 0 -0 20 xyz
    dof rx ry rz
    limits( -inf , inf )
( -inf , inf )
( -inf , inf )

  end
  begin
    id 3
    name ltibia
    direction 0.34202 -0.939693 1.20839e-009
    length 18.0532
    axis 0 -0 20 xyz
    dof rz ry rx
    limits( -inf , inf )
( -inf , inf )
( -inf , inf )

  end
  begin
    id 4
    name lfoot
    direction 0.0841971 -0.23133 0.969225
    length 5.23822
    axis -90 7.62852e-016 20 xyz
    dof ry rx rz
    limits( -inf , inf )
( -inf , inf )
( -inf , inf )

  end
  begin
    id 5
    name ltoes
    direction 0 0 0
    length 0
    axis 0 0 0 xyz
    dof rz ry rx
    limits( -inf , inf )
( -inf , inf )
( -inf , inf )

  end
  begin
    id 6
    name rfemurDummy
    direction -0.625247 -0.75382 0.202044
    length 5.74091
    axis 0 -0 0 xyz
  end
  begin
    id 7
    name rfemur
    direction -0.34202 -0.939693 -1.47013e-008
    length 16.4922
    axis 0 -0 -20 xyz
    dof rx ry rz
    limits( -inf , inf )
( -inf , inf )
( -inf , inf )

  end
  begin
    id 8
    name rtibia
    direction -0.34202 -0.939693 -7.74345e-010
    length 18.2421
    axis 0 -0 -20 xyz
    dof rz ry rx
    limits( -inf , inf )
( -inf , inf )
( -inf , inf )

  end
  begin
    id 9
    name rfoot
    direction -0.124331 -0.341598 0.931586
    length 5.45787
    axis -90 -7.62852e-016 -20 xyz
    dof ry rx rz
    limits( -inf , inf )
( -inf , inf )
( -inf , inf )

  end
  begin
    id 10
    name rtoes
    direction 0 0 0
    length 0
    axis 0 0 0 xyz
    dof rz ry rx
    limits( -inf , inf )
( -inf , inf )
( -inf , inf )

  end
  begin
    id 11
    name lowerbackDummy
    direction 0 0 0
    length 0
    axis 0 -0 0 xyz
  end
  begin
    id 12
    name lowerback
    direction -0.0218484 0.994884 -0.0986304
    length 4.45607
    axis 0 -0 0 xyz
    dof rx ry rz
    limits( -inf , inf )
( -inf , inf )
( -inf , inf )

  end
  begin
    id 13
    name upperback
    direction -0.00973057 0.999717 -0.0217111
    length 4.47449
    axis 0 -0 0 xyz
    dof rx ry rz
    limits( -inf , inf )
( -inf , inf )
( -inf , inf )

  end
  begin
    id 14
    name thorax
    direction -0.000928171 0.999699 0.0245198
    length 4.50973
    axis 0 -0 0 xyz
    dof rx ry rz
    limits( -inf , inf )
( -inf , inf )
( -inf , inf )

  end
  begin
    id 15
    name rclavicle
    direction -0.9009 0.425937 -0.0834055
    length 7.28587
    axis 0 -0 0 xyz
    dof rx ry rz
    limits( -inf , inf )
( -inf , inf )
( -inf , inf )

  end
  begin
    id 16
    name rhumerus
    direction -1 -2.23604e-007 -1.42637e-007
    length 13.5704
    axis 180 30 90 xyz
    dof rx ry rz
    limits( -inf , inf )
( -inf , inf )
( -inf , inf )

  end
  begin
    id 17
    name rradius
    direction -1 5.68281e-008 -4.4952e-007
    length 8.06782
    axis 180 30 90 xyz
    dof rz ry rx
    limits( -inf , inf )
( -inf , inf )
( -inf , inf )

  end
  begin
    id 18
    name rwrist
    direction -1 1.51393e-007 1.38143e-007
    length 4.03391
    axis -90 -90 0 xyz
    dof rz rx ry
    limits( -inf , inf )
( -inf , inf )
( -inf , inf )

  end
  begin
    id 19
    name rthumb
    direction 0 0 0
    length 0
    axis 0 0 0 xyz
    dof ry rx rz
    limits( -inf , inf )
( -inf , inf )
( -inf , inf )

  end
  begin
    id 20
    name rhand
    direction -1 -3.34077e-007 -5.59631e-007
    length 1.29744
    axis -90 -90 0 xyz
    dof ry rx rz
    limits( -inf , inf )
( -inf , inf )
( -inf , inf )

  end
  begin
    id 21
    name rfingers
    direction 0 0 0
    length 0
    axis 0 0 0 xyz
    dof rz ry rx
    limits( -inf , inf )
( -inf , inf )
( -inf , inf )

  end
  begin
    id 22
    name lclavicle
    direction 0.940017 0.332249 -0.0773232
    length 8.29589
    axis 0 -0 0 xyz
    dof rx ry rz
    limits( -inf , inf )
( -inf , inf )
( -inf , inf )

  end
  begin
    id 23
    name lhumerus
    direction 1 7.41158e-008 -1.44768e-008
    length 12.0042
    axis 180 -30 -90 xyz
    dof rx ry rz
    limits( -inf , inf )
( -inf , inf )
( -inf , inf )

  end
  begin
    id 24
    name lradius
    direction 1 -1.32972e-007 3.10821e-007
    length 8.1902
    axis 180 -30 -90 xyz
    dof rz ry rx
    limits( -inf , inf )
( -inf , inf )
( -inf , inf )

  end
  begin
    id 25
    name lwrist
    direction 1 3.08957e-007 4.01394e-007
    length 4.09509
    axis -90 90 0 xyz
    dof rz rx ry
    limits( -inf , inf )
( -inf , inf )
( -inf , inf )

  end
  begin
    id 26
    name lthumb
    direction 0 0 0
    length 0
    axis 0 0 0 xyz
    dof ry rx rz
    limits( -inf , inf )
( -inf , inf )
( -inf , inf )

  end
  begin
    id 27
    name lhand
    direction 1 -1.64125e-007 -6.99514e-007
    length 1.37229
    axis -90 90 0 xyz
    dof ry rx rz
    limits( -inf , inf )
( -inf , inf )
( -inf , inf )

  end
  begin
    id 28
    name lfingers
    direction 0 0 0
    length 0
    axis 0 0 0 xyz
    dof rz ry rx
    limits( -inf , inf )
( -inf , inf )
( -inf , inf )

  end
  begin
    id 29
    name lowerneck
    direction -0.030798 0.998024 0.0547665
    length 3.93918
    axis 0 -0 0 xyz
    dof rx ry rz
    limits( -inf , inf )
( -inf , inf )
( -inf , inf )

  end
  begin
    id 30
    name upperneck
    direction 0.0531588 0.996611 -0.0627736
    length 3.95491
    axis 0 -0 0 xyz
    dof rx ry rz
    limits( -inf , inf )
( -inf , inf )
( -inf , inf )

  end
  begin
    id 31
    name head
    direction 0 0 0
    length 0
    axis 0 0 0 xyz
    dof rx ry rz
    limits( -inf , inf )
( -inf , inf )
( -inf , inf )

  end
:hierarchy
  begin
    root lfemurDummy rfemurDummy lowerbackDummy
    lfemurDummy lfemur
    lfemur ltibia
    ltibia lfoot
    lfoot ltoes
    rfemurDummy rfemur
    rfemur rtibia
    rtibia rfoot
    rfoot rtoes
    lowerbackDummy lowerback
    lowerback upperback
    upperback thorax
    thorax rclavicle lclavicle lowerneck
    rclavicle rhumerus
    rhumerus rradius
    rradius rwrist
    rwrist rthumb rhand
    rhand rfingers
    lclavicle lhumerus
    lhumerus lradius
    lradius lwrist
    lwrist lthumb lhand
    lhand lfingers
    lowerneck upperneck
    upperneck head
  end

:SAMPLES-PER-SECOND 30
:FULLY-SPECIFIED
:DEGREES
37
root  4.898222225 41.35733477 -1.874608881 -5.242004395 -32.80999756 6.322998047
lowerback  7.969789982 1.336089969 -2.797489882
upperback  2.885240078 1.536229968 -0.02293949947
thorax  -1.555500031 0.7467110157 1.40605998
lowerneck  -3.189769983 3.791199923 -4.348229885
upperneck  11.57489967 4.640329838 6.795539856
head  3.692280054 2.424010038 2.963769913
lclavicle  0 -9.442270133e-015 7.951389973e-016
lhumerus  0.09904260188 -19.47179985 77.94380188
lradius  2.642572768e-031 -2.342147135e-031 138.4490051
lwrist  -7.062250077e-031 -0 7.008170128
lhand  -1.496451383e-031 -27.76390076 20.11240005
lfingers  90 7.125020027 -90
lthumb  89.89689403 5.08795885 91.16245106
rclavicle  0 -9.442270133e-015 7.951389973e-016
rhumerus  11.48029995 13.83759975 -79.42369843
rradius  -2.457974568e-031 2.535193298e-031 134.1139984
rwrist  7.062250077e-031 -0 -9.922860146
rhand  -7.920061211e-032 -33.2840004 9.303460121
rfingers  -90 -7.125020027 -90
rthumb  -92.93752616 -24.25625642 -97.11982154
rfemur  -12.60200024 10.35849953 13.21800041
rtibia  -0 0 55.36370087
rfoot  -4.461440444e-032 -8.371230125 -2.86026001
rtoes  5.373923086 19.29304026 -105.8922705
lfemur  -23.39349937 9.16767025 -15.9197998
ltibia  -0 0 53.48920059
lfoot  5.52764351e-032 -3.491580009 -1.28294003
ltoes  -4.250644065 -19.5611806 -102.515957
38
root  4.871910951 41.50222118 -1.867675594 -5.309997559 -32.66799927 6.351989746
lowerback  7.86289978 1.336660028 -2.825939894
upperback  2.830480099 1.539999962 0.04035830125
thorax  -1.555500031 0.7493489981 1.488459945
lowerneck  -3.475950003 3.817970037 -4.468989849
upperneck  11.99800014 4.6740098 6.834519863
head  3.861479998 2.442569971 3.01274991
lclavicle  0 -9.442270133e-015 7.951389973e-016
lhumerus  0.1767420024 -19.61059952 77.87999725
lradius  2.652319569e-031 -2.331103803e-031 138.6880035
lwrist  -7.062250077e-031 -1.765562519e-031 7.27726984
lhand  -1.496451383e-031 -27.76390076 20.11240005
lfingers  90 7.125020027 -90
lthumb  89.89689403 5.08795885 91.16245106
rclavicle  0 -9.442270133e-015 7.951389973e-016
rhumerus  11.63360023 13.29430008 -79.0542984
rradius  -2.466588896e-031 2.526812865e-031 134.3090057
rwrist  7.062250077e-031 -0 -10.37919998
rhand  -7.920061211e-032 -33.2840004 9.303460121
rfingers  -90 -7.125020027 -90
rthumb  -92.93752616 -24.25625642 -97.11982154
rfemur  -13.30440044 10.61270046 13.21409988
rtibia  -0 0 55.9878006
rfoot  -4.440845157e-032 -6.314139843 -3.24326992
rtoes  5.373923086 19.29304026 -105.8922705
lfemur  -23.4708004 9.866129875 -16.55150032
ltibia  -0 0 54.22399902
lfoot  4.424814658e-032 -4.024010181 0.2581470013
ltoes  -4.250644065 -19.5611806 -102.515957
39
root  4.846200042 41.62533377 -1.863455585 -5.468994141 -32.54400635 6.502990723
lowerback  7.792660236 1.34138 -2.921169996
upperback  2.847160101 1.541370034 0.01591780037
thorax  -1.501129985 0.7489740252 1.518249989
lowerneck  -3.908570051 3.845499992 -4.537769794
upperneck  12.29500008 4.714650154 6.891560078
head  4.017920017 2.469830036 3.060389996
lclavicle  0 -9.442270133e-015 7.951389973e-016
lhumerus  0.3784430027 -19.70149994 77.66889954
lradius  2.665701771e-031 -2.315788874e-031 139.0180054
lwrist  -7.062250077e-031 -1.765562519e-031 7.728189945
lhand  -1.496451383e-031 -27.76390076 20.11240005
lfingers  90 7.125020027 -90
lthumb  89.89689403 5.08795885 91.16245106
rclavicle  0 -9.442270133e-015 7.951389973e-016
rhumerus  11.98019981 12.67169952 -78.74549866
rradius  -2.477063291e-031 2.516545546e-031 134.5469971
rwrist  7.062250077e-031 -0 -10.83600044
rhand  -7.920061211e-032 -33.2840004 9.303460121
rfingers  -90 -7.125020027 -90
rthumb  -92.93752616 -24.25625642 -97.11982154
rfemur  -14.04679966 10.86019993 13.08839989
rtibia  -0 0 56.70849991
rfoot  -4.427672298e-032 -4.519249916 -3.470920086
rtoes  5.373923086 19.29304026 -105.8922705
lfemur  -23.53759956 10.65709972 -17.36030006
ltibia  -0 0 55.28839874
lfoot  4.428352818e-032 -4.629310131 2.009520054
ltoes  -4.250644065 -19.5611806 -102.515957
40
root  4.821822399 41.72577745 -1.878093359 -5.659973145 -32.5249939 6.572998047
lowerback  7.846069813 1.407449961 -2.980000019
upperback  2.959980011 1.622159958 -0.04190570116
thorax  -1.417919993 0.7863659859 1.484549999
lowerneck  -4.462749958 3.827209949 -4.357590199
upperneck  12.38799953 4.70085001 6.813310146
head  4.147059917 2.476039886 3.02286005
lclavicle  0 -9.442270133e-015 7.951389973e-016
lhumerus  0.8583629727 -19.93029976 77.26989746
lradius  2.680480006e-031 -2.298667217e-031 139.3849945
lwrist  -7.062250077e-031 -1.765562519e-031 8.0499897
lhand  -1.496451383e-031 -27.76390076 20.11240005
lfingers  90 7.125020027 -90
lthumb  89.89689403 5.08795885 91.16245106
rclavicle  0 -9.442270133e-015 7.951389973e-016
rhumerus  12.38560009 11.84939957 -78.35179901
rradius  -2.490992634e-031 2.502758425e-031 134.8650055
rwrist  7.062250077e-031 -0 -11.48410034
rhand  -7.920061211e-032 -33.2840004 9.303460121
rfingers  -90 -7.125020027 -90
rthumb  -92.93752616 -24.25625642 -97.11982154
rfemur  -14.79500008 11.25020027 13.09370041
rtibia  -0 0 57.4897995
rfoot  -4.419631039e-032 -2.916549921 -3.68859005
rtoes  5.373923086 19.29304026 -105.8922705
lfemur  -23.60140038 11.34549999 -18.0189991
ltibia  -0 0 56.61759949
lfoot  4.433687067e-032 -5.414249897 3.798360109
ltoes  -4.250644065 -19.5611806 -102.515957
